<!-- Generated by IcoMoon.io -->
<svg version="1.1" xmlns="http://www.w3.org/2000/svg" width="32" height="32" viewBox="0 0 32 32">
<title>clock</title>
<path d="M15.868 17.708c-0.564 0-1.021-0.457-1.021-1.021s0.457-1.021 1.021-1.021c1.882 0 3.764 0 5.643 0 0.564 0 1.021 0.456 1.021 1.021s-0.457 1.021-1.021 1.021c-1.88 0-3.762 0-5.643 0zM14.91 11.766c0-0.563 0.457-1.021 1.022-1.021 0.562 0 1.021 0.458 1.021 1.021v4.898c0 0.564-0.459 1.021-1.021 1.021-0.564 0-1.022-0.472-1.022-1.037v-4.882zM15.932 3.419c3.66 0 6.977 1.486 9.377 3.886h0.004c2.4 2.4 3.885 5.718 3.885 9.382 0 3.66-1.485 6.977-3.885 9.377l-0.004 0.004c-2.4 2.4-5.717 3.887-9.377 3.887-3.664 0-6.982-1.485-9.383-3.887v-0.004c-2.4-2.4-3.886-5.717-3.886-9.377 0-3.664 1.486-6.982 3.886-9.382 2.401-2.401 5.719-3.886 9.383-3.886v0zM23.872 8.747c-2.031-2.030-4.84-3.286-7.94-3.286-3.101 0-5.909 1.257-7.94 3.288s-3.288 4.838-3.288 7.939c0 3.102 1.257 5.909 3.286 7.94l0.002-0.002c2.031 2.031 4.839 3.289 7.94 3.289 3.1 0 5.909-1.258 7.94-3.287 2.029-2.031 3.285-4.838 3.285-7.94 0-3.101-1.256-5.908-3.287-7.939l0.002-0.002zM7.138 2.204c0.438-0.355 1.079-0.288 1.435 0.15 0.355 0.437 0.289 1.080-0.149 1.436l-3.96 3.216c-0.438 0.356-1.080 0.289-1.436-0.149s-0.276-1.090 0.161-1.446l3.948-3.208zM24.725 2.204c-0.438-0.355-1.080-0.288-1.435 0.15-0.357 0.437-0.289 1.080 0.148 1.436l3.961 3.216c0.436 0.356 1.081 0.289 1.435-0.149s0.277-1.090-0.161-1.446l-3.947-3.208z"></path>
</svg>
