<!-- Generated by IcoMoon.io -->
<svg version="1.1" xmlns="http://www.w3.org/2000/svg" width="32" height="32" viewBox="0 0 32 32">
<title>news</title>
<path d="M23.812 10.071c-0.094-0.282-0.376-0.376-0.659-0.376-0.471 0-0.847 0.376-0.847 0.753 0 0.188 0.094 0.376 0.188 0.471 1.412 1.506 2.259 3.576 2.259 5.741s-0.847 4.235-2.259 5.741c-0.094 0.188-0.188 0.376-0.188 0.565 0 0.471 0.376 0.753 0.847 0.753 0.282 0 0.565-0.188 0.659-0.376 1.6-1.788 2.541-4.141 2.541-6.776-0.094-2.353-1.035-4.706-2.541-6.494zM27.765 6.118c-0.188-0.188-0.376-0.376-0.659-0.376-0.471 0-0.847 0.376-0.847 0.753 0 0.188 0.094 0.376 0.188 0.471 2.447 2.541 3.859 5.929 3.859 9.694s-1.506 7.153-3.859 9.694c-0.094 0.094-0.188 0.282-0.188 0.471 0 0.471 0.376 0.753 0.847 0.753 0.282 0 0.565-0.188 0.659-0.376 2.635-2.824 4.235-6.588 4.235-10.635 0-3.953-1.6-7.624-4.235-10.447zM17.224 2.353c-0.188 0-0.282 0-0.471 0.094l-9.412 6.494h-5.741c-0.941 0-1.6 0.753-1.6 1.6v10.729c0 0.847 0.753 1.6 1.6 1.6h5.741l9.412 6.494h0.094c0.376 0.188 0.941 0.094 1.129-0.282 0.094-0.188 0.094-0.376 0.094-0.565v-25.412c0-0.376-0.376-0.753-0.847-0.753zM5.741 21.082h-3.859v-10.165h3.765v10.165zM16.188 26.635l-8.565-5.365v-9.882l8.565-5.365v20.612z"></path>
</svg>
