<!-- Generated by IcoMoon.io -->
<svg version="1.1" xmlns="http://www.w3.org/2000/svg" width="32" height="32" viewBox="0 0 32 32">
<title>pl</title>
<path fill="#fff" d="M10.667 14.222h-7.111c-1.956 0-3.556-1.6-3.556-3.556v-7.111c0-1.956 1.6-3.556 3.556-3.556h7.111c1.956 0 3.556 1.6 3.556 3.556v7.111c0 1.956-1.6 3.556-3.556 3.556z"></path>
<path fill="#fff" d="M24.889 1.778c0.533 0 0.889 0.178 1.244 0.533l3.556 3.556c0.711 0.711 0.711 1.778 0 2.489l-3.556 3.556c-0.356 0.356-0.711 0.533-1.244 0.533s-0.889-0.178-1.244-0.533l-3.556-3.556c-0.711-0.711-0.711-1.778 0-2.489l3.556-3.556c0.356-0.356 0.711-0.533 1.244-0.533zM24.889 0c-0.889 0-1.778 0.356-2.489 1.067l-3.556 3.556c-1.422 1.422-1.422 3.556 0 4.978l3.556 3.556c0.711 0.711 1.6 1.067 2.489 1.067s1.778-0.356 2.489-1.067l3.556-3.556c1.422-1.422 1.422-3.556 0-4.978l-3.556-3.556c-0.711-0.711-1.6-1.067-2.489-1.067v0z"></path>
<path fill="#fff" d="M10.667 32h-7.111c-1.956 0-3.556-1.6-3.556-3.556v-7.111c0-1.956 1.6-3.556 3.556-3.556h7.111c1.956 0 3.556 1.6 3.556 3.556v7.111c0 1.956-1.6 3.556-3.556 3.556z"></path>
<path fill="#fff" d="M28.444 32h-7.111c-1.956 0-3.556-1.6-3.556-3.556v-7.111c0-1.956 1.6-3.556 3.556-3.556h7.111c1.956 0 3.556 1.6 3.556 3.556v7.111c0 1.956-1.6 3.556-3.556 3.556z"></path>
</svg>
