<!-- Generated by IcoMoon.io -->
<svg version="1.1" xmlns="http://www.w3.org/2000/svg" width="32" height="32" viewBox="0 0 32 32">
<title>pp</title>
<path fill="#fff" d="M32 16c0 8.837-7.163 16-16 16s-16-7.163-16-16c0-8.837 7.163-16 16-16s16 7.163 16 16z"></path>
<path fill="#333" d="M22.691 15.418c0.727-0.727 1.164-1.745 1.164-3.055 0-0.582-0.145-1.164-0.291-1.745-0.436-1.164-1.309-2.036-2.473-2.473-0.436-0.145-1.018-0.291-1.455-0.436-0.727-0.145-1.309-0.145-2.036-0.145h-5.673c-0.873 0.145-1.455 0.291-1.745 0.582s-0.582 0.873-0.582 1.6v13.236c0 0.727 0.145 1.164 0.436 1.6 0.291 0.291 0.727 0.582 1.309 0.582s0.873-0.145 1.309-0.582c0.291-0.291 0.436-0.873 0.436-1.6v-5.527h1.309c0.582 0 1.164 0.145 1.6 0.291s0.873 0.436 1.164 0.873c0.436 0.436 0.873 1.164 1.309 1.891l1.455 2.327c0.291 0.582 0.582 1.018 0.727 1.309s0.436 0.582 0.727 0.727c0.291 0.145 0.582 0.291 1.018 0.291 0.291 0 0.582 0 0.873-0.145s0.436-0.291 0.582-0.582c0.145-0.291 0.291-0.436 0.291-0.727 0-0.145-0.145-0.582-0.436-1.164-0.291-0.727-0.582-1.309-1.018-1.891-0.436-0.727-1.018-1.455-1.455-2.036-0.582-0.582-1.164-1.164-1.745-1.455 1.455-0.436 2.473-1.018 3.2-1.745v0zM19.782 14.109c-0.291 0.291-0.727 0.582-1.309 0.727s-1.309 0.145-2.182 0.145h-3.055v-4.655h3.345c1.164 0 2.036 0.145 2.473 0.291s0.727 0.436 1.018 0.873c0.145 0.291 0.291 0.582 0.291 1.164-0.145 0.582-0.291 1.018-0.582 1.455v0z"></path>
</svg>
