<!-- Generated by IcoMoon.io -->
<svg version="1.1" xmlns="http://www.w3.org/2000/svg" width="32" height="32" viewBox="0 0 32 32">
<title>question</title>
<path d="M15.981 22.021c0.71 0 1.285 0.576 1.285 1.285s-0.575 1.285-1.285 1.285c-0.71 0-1.285-0.575-1.285-1.285s0.575-1.285 1.285-1.285zM22.413 24.339c-1.762 1.419-4 1.95-6.433 1.95-5.666 0-10.275-4.61-10.275-10.275s4.609-10.275 10.275-10.275c5.665 0 10.275 4.609 10.275 10.275 0 2.212-0.703 3.623-1.897 5.302l1.121 0.32 0.92-0.32c1.003-1.753 1.577-3.141 1.577-5.302 0-6.615-5.381-11.997-11.997-11.997s-11.997 5.381-11.997 11.997c0 6.615 5.381 11.997 11.997 11.997 3.542 0 6.73-1.223 8.927-3.671 0 0-0.769-0.32-1.335-0.32s-1.16 0.32-1.16 0.32zM18.353 15.831c0.94-0.94 1.913-1.912 1.913-3.195 0-2.374-1.922-4.304-4.285-4.304s-4.285 1.905-4.285 4.246c0 0.473 0.384 0.857 0.857 0.857s0.857-0.384 0.857-0.857c0-1.42 1.129-2.532 2.571-2.532 1.417 0 2.571 1.162 2.571 2.59 0 0.572-0.717 1.288-1.41 1.982-0.946 0.945-2.017 2.016-2.017 3.418v1.449c0 0.473 0.384 0.857 0.857 0.857s0.857-0.385 0.857-0.858v-1.449c0-0.692 0.77-1.461 1.515-2.205zM24.359 21.315s0.385 0.32 1.121 0.32 0.92-0.32 0.92-0.32z"></path>
</svg>
